<?xml version="1.0" encoding="utf-8"?>
<!-- Generator: Adobe Illustrator 25.0.1, SVG Export Plug-In . SVG Version: 6.00 Build 0)  -->
<svg version="1.1" id="Calque_1" xmlns="http://www.w3.org/2000/svg" xmlns:xlink="http://www.w3.org/1999/xlink" x="0px" y="0px"
	 viewBox="0 0 82 82" style="enable-background:new 0 0 82 82;" xml:space="preserve">
<style type="text/css">
	.st0{fill:none;}
	.st1{fill:#5E2959;}
	.st2{fill:#80CBD8;}
	.st3{fill:#FFFFFF;}
	.st4{fill:#F8F4F8;}
</style>
<rect id="backgroundrect" y="0" class="st0" width="82" height="82"/>
<g>
	<path class="st1" d="M40.9,81.9C18.1,81.9-0.1,63.4,0,40.4C0.1,18.1,18.7,0,41.3,0.1C63.7,0.1,82.1,18.6,82,41
		C81.9,63.7,63.6,82,40.9,81.9z M79.7,41c0-21.3-17.3-38.6-38.6-38.6C19.8,2.3,2.4,19.5,2.3,40.8C2.3,62.2,19.6,79.6,40.9,79.7
		C62.2,79.8,79.7,62.3,79.7,41z"/>
	<path class="st2" d="M79.7,41c0,21.3-17.5,38.8-38.8,38.7C19.6,79.6,2.3,62.2,2.3,40.8C2.4,19.5,19.8,2.3,41.1,2.3
		C62.4,2.4,79.7,19.7,79.7,41z M47.1,26.6c-0.1,0-0.3-0.1-0.4-0.1c0-0.1,0-0.1,0-0.2c0-3,0-6,0-9c0-3.3-2-5.6-4.9-5.6
		c-2.9,0-5,2.2-5,5.5c0,2.6,0,5.2,0,7.8c0,1.1,0,1.8-1.6,1.5c-2-0.5-3.9,0-5.1,1.8c-0.6,0.9-1.2,0.5-1.9,0.3c-3.5-1.1-6.7,1-6.7,4.7
		c-0.1,6-0.1,11.9,0,17.9c0.2,9.8,7.8,17.9,17.6,18.9c9.8,1,18.8-5.5,21-15.1c0.9-4,0.6-8.1,0.4-12.1c-0.1-2.4-1.8-4.2-4.1-4.8
		c-1.8-0.4-1.7-1.2-1.3-2.6c1.3-4.5,2.5-9.1,3.7-13.6c0.5-1.7,0.5-3.4-0.5-5c-1.2-1.7-2.9-2.3-4.9-2c-2.1,0.3-3.4,1.7-4,3.7
		C48.5,21.2,47.8,23.9,47.1,26.6z"/>
	<path class="st1" d="M47.1,26.6c0.7-2.7,1.4-5.3,2.2-8c0.6-2,1.9-3.4,4-3.7c2-0.3,3.7,0.3,4.9,2c1.1,1.5,1,3.2,0.5,5
		c-1.2,4.5-2.4,9.1-3.7,13.6c-0.4,1.4-0.4,2.2,1.3,2.6c2.4,0.6,4,2.4,4.1,4.8C60.7,47,61,51,60.1,55c-2.2,9.6-11.2,16.1-21,15.1
		c-9.8-1-17.4-9.1-17.6-18.9c-0.1-6-0.1-11.9,0-17.9c0-3.7,3.2-5.8,6.7-4.7c0.7,0.2,1.3,0.6,1.9-0.3c1.2-1.8,3.1-2.3,5.1-1.8
		c1.6,0.4,1.6-0.3,1.6-1.5c0-2.6,0-5.2,0-7.8c0-3.3,2.1-5.5,5-5.5c2.9,0,4.9,2.2,4.9,5.6c0,3,0,6,0,9c0,0.1,0,0.1,0,0.2
		C46.8,26.5,47,26.5,47.1,26.6z M30.2,64.4L30.2,64.4C30.2,64.3,30.1,64.4,30.2,64.4c4.8,4.2,12.3,5.1,18.6,2.1
		c6.2-3,10.1-9.5,9.8-16.2c0-2.3,0-4.5,0-6.8c-0.5-3.1-2.3-4.2-6.4-3.7c-0.5,0-1,0-1.6,0c-0.8,0-1.6-0.1-2.3-0.1
		c-2.3,0.1-3.3,1-3.3,2.8c0,1.8,1.1,2.6,3.4,2.7c1.4,0.1,2.9-0.4,4.2,0.4c0,0.1,0,0.2,0.1,0.3c-0.1,1.7,0.6,3.9-2.3,3.9
		c-3-0.1-5.6,1.1-7.8,3.1c-1.1,0.6-1.5,1.9-2.3,2.7c-0.1,0-0.3,0-0.4,0c-0.1-0.1-0.2-0.1-0.4-0.1c-0.1-0.1-0.2-0.2-0.3-0.3
		c-0.1-0.9,0.5-1.5,0.9-2.1c1.1-1.6,2.7-2.5,4.2-3.6l0,0c1.2-0.4,2.4-0.7,3.6-1.2c1-0.4,3,0.1,2.9-0.9c-0.2-1.3-2-0.5-3.1-0.6
		c-2.5-0.3-4.2-1.9-4.3-4.3c-0.1-2.4,1.5-4.2,4.1-4.5c1.2-0.1,2.5-0.1,3.8-0.1c0.8,0,1.2-0.2,1.4-1c1.4-5.4,2.9-10.8,4.4-16.3
		c0.4-1.5,0-2.8-1.4-3.6c-1.2-0.7-2.4-0.5-3.5,0.4c-0.7,0.6-0.8,1.5-1.1,2.3C49.5,25.3,48,30.6,46.6,36c-0.2,0.6-0.2,1.5-1.1,1.5
		c-1-0.1-0.8-1-0.9-1.7c0-3-0.1-6-0.1-8.9c0-0.8,0-1.6,0-2.4c0-1.3,0-2.7,0-4c0-0.8,0-1.6,0-2.4c0.2-2.7-0.8-4.3-2.8-4.4
		c-2,0-3.1,1.4-3,4c0,2.8,0,5.6,0,8.3c0,5.8-0.1,11.7-0.1,17.5c-0.1,0.3-0.2,0.5-0.3,0.8c-0.6,0.7-1.2,1.3-1.8,2
		c-0.1,0-0.2,0-0.3,0.1c-1.9,0.6-3.8,0.7-5.4-0.8c-0.3-0.3-0.6-0.7-1.1-0.2c-1.9,1.9-4,1.7-6.2,0.7c-0.2,1.3-0.2,2.6,0,3.8
		c0,0.7,0,1.3,0,2c0.2,4,1.6,7.4,4.4,10.3c0,0.3,0.2,0.5,0.5,0.6C28.8,63.5,29.4,64,30.2,64.4z M37,36.7c0-1.8,0-3.6,0-5.4
		c-0.1-1.8-1.3-3.1-2.9-3.1c-1.7,0-3,1.2-3,3c-0.1,3.6-0.1,7.3,0,10.9c0,1.8,1.3,3.1,2.9,3.1c1.8,0,3-1.2,3-3.2
		C37.1,40.3,37,38.5,37,36.7z M23.4,37.7C23.4,37.7,23.4,37.7,23.4,37.7c0,1.5,0,2.9,0,4.4c0.1,2,1.1,3.1,2.8,3.2
		c1.8,0.1,3.1-1,3.2-3c0.1-3,0.1-5.9,0-8.9c-0.1-1.8-1.4-3-3-3c-1.7,0-2.9,1.2-2.9,3.1C23.4,34.8,23.4,36.2,23.4,37.7z"/>
	<g>
		<path class="st3" d="M55.3,43.5c0,0.1,0,0.1,0,0.2C55.4,43.6,55.4,43.6,55.3,43.5z"/>
		<path class="st3" d="M34,45.2c1.8,0,3-1.2,3-3.2c0-1.8,0-3.6,0-5.4c0-1.8,0-3.6,0-5.4c-0.1-1.8-1.3-3.1-2.9-3.1c-1.7,0-3,1.2-3,3
			c-0.1,3.6-0.1,7.3,0,10.9C31.1,44,32.3,45.2,34,45.2z"/>
		<path class="st3" d="M23.4,37.7c0,1.5,0,2.9,0,4.4c0.1,2,1.1,3.1,2.8,3.2c1.8,0.1,3.1-1,3.2-3c0.1-3,0.1-5.9,0-8.9
			c-0.1-1.8-1.4-3-3-3c-1.7,0-2.9,1.2-2.9,3.1C23.4,34.8,23.4,36.2,23.4,37.7C23.4,37.7,23.4,37.7,23.4,37.7z"/>
		<g>
			<path class="st3" d="M58.5,50.3c0-2.3,0-4.5,0-6.8c-1.1,0.1-2.1-0.5-3.2,0.2c-0.1,0.2-0.1,0.4-0.3,0.4c-0.2,0.1-0.4-0.1-0.3-0.3
				c0.1-0.1,0.3-0.2,0.4-0.3c0.1,0,0.1,0,0.2,0c0.4-2.6-1.7-2.9-3.2-3.7c-0.5,0-1,0-1.6,0c-0.8,0-1.6-0.1-2.3-0.1
				c-2.3,0.1-3.3,1-3.3,2.8c0,1.8,1.1,2.6,3.4,2.7c1.4,0.1,2.9-0.4,4.2,0.4c0,0.1,0,0.2,0.1,0.3c-0.1,1.7,0.6,3.9-2.3,3.9
				c-3-0.1-5.6,1.1-7.8,3.1c-1.1,0.6-1.5,1.9-2.3,2.7c-0.1,0-0.3,0-0.4,0c-0.1,0-0.2-0.1-0.4-0.1c-0.1-0.1-0.2-0.2-0.3-0.3
				c-0.1-0.9,0.5-1.5,0.9-2.1c1.1-1.6,2.7-2.5,4.2-3.6c0,0,0,0,0,0c1.2-0.4,2.4-0.7,3.6-1.2c1-0.4,3,0.1,2.9-0.9
				c-0.2-1.3-2-0.5-3.1-0.6c-2.5-0.3-4.2-1.9-4.3-4.3c-0.1-2.4,1.5-4.2,4.1-4.5c1.2-0.1,2.5-0.1,3.8-0.1c0.8,0,1.2-0.2,1.4-1
				c1.4-5.4,2.9-10.8,4.4-16.3c0.4-1.5,0-2.8-1.4-3.6c-1.2-0.7-2.4-0.5-3.5,0.4c-0.7,0.6-0.8,1.5-1.1,2.3C49.5,25.3,48,30.6,46.6,36
				c-0.2,0.6-0.2,1.5-1.1,1.5c-1-0.1-0.8-1-0.9-1.7c0-3-0.1-6-0.1-8.9c0-0.8,0-1.6,0-2.4c0-1.3,0-2.7,0-4c0-0.8,0-1.6,0-2.4
				c0.2-2.7-0.8-4.3-2.8-4.4c-2,0-3.1,1.4-3,4c0,2.8,0,5.6,0,8.3c0,5.8-0.1,11.7-0.1,17.5c-0.1,0.3-0.2,0.5-0.3,0.8
				c-0.6,0.7-1.2,1.3-1.8,2c-0.1,0-0.2,0-0.3,0.1c-1.9,0.6-3.8,0.7-5.4-0.8c-0.3-0.3-0.6-0.7-1.1-0.2c-1.9,1.9-4,1.7-6.2,0.7
				c-0.2,1.3-0.2,2.6,0,3.8c0,0.7,0,1.3,0,2c0.2,4,1.6,7.4,4.4,10.3c0,0.3,0.2,0.5,0.5,0.6c0.4,0.7,1,1.2,1.7,1.6c0,0,0,0,0,0
				c4.8,4.3,12.3,5.1,18.6,2.1C54.9,63.5,58.8,57,58.5,50.3z M39,66.6l0.1-0.2l0.1,0.1L39,66.6z"/>
			<path class="st3" d="M55.3,43.5c1.1-0.5,2.1,0.1,3.2,0c-0.5-3.1-2.3-4.2-6.4-3.7C53.7,40.6,55.8,41,55.3,43.5z"/>
		</g>
	</g>
	<path class="st4" d="M39.8,55.7c-0.1,0-0.2-0.1-0.4-0.1C39.6,55.6,39.7,55.6,39.8,55.7z"/>
	<path class="st4" d="M55.3,43.9c0,0-0.1,0.2-0.2,0.3c-0.2,0.1-0.4-0.1-0.3-0.3c0.1-0.1,0.3-0.2,0.4-0.3
		C55.3,43.5,55.4,43.5,55.3,43.9z"/>
	<polygon class="st4" points="39,66.6 39.1,66.5 39.2,66.6 	"/>
</g>
</svg>
