<?xml version="1.0" encoding="utf-8"?>
<!-- Generator: Adobe Illustrator 25.0.1, SVG Export Plug-In . SVG Version: 6.00 Build 0)  -->
<svg version="1.1" id="Calque_1" xmlns="http://www.w3.org/2000/svg" xmlns:xlink="http://www.w3.org/1999/xlink" x="0px" y="0px"
	 viewBox="0 0 82 82" style="enable-background:new 0 0 82 82;" xml:space="preserve">
<style type="text/css">
	.st0{fill:none;}
	.st1{fill:#5E2959;}
	.st2{fill:#FDDD54;}
	.st3{fill:#FEFEFE;}
	.st4{fill:#EE5381;}
	.st5{fill:#F8F4F8;}
	.st6{fill:#FFFFFF;}
</style>
<rect id="backgroundrect" y="0" class="st0" width="82" height="82"/>
<g>
	<path class="st1" d="M40.9,82C18.2,82,0,63.5,0,40.5C0,18.4,18.7-0.1,41,0C63.8,0.1,82,18.6,82,40.8C81.9,63.5,64.1,81.9,40.9,82z
		 M41.1,79.7c21.4,0,38.7-17.3,38.6-38.8c0-21.4-17.4-38.6-38.8-38.6C19.7,2.3,2.3,19.7,2.3,40.8C2.3,62.4,19.6,79.7,41.1,79.7z"/>
	<path class="st2" d="M41.1,79.7c-21.5,0-38.7-17.3-38.8-38.9c0-21.1,17.4-38.5,38.6-38.5c21.4,0,38.7,17.2,38.8,38.6
		C79.8,62.4,62.5,79.7,41.1,79.7z M21.9,40.4c0,3.6,0,7.2,0,10.8c0,13,12.6,23.4,26.8,18.2C55.9,66.8,60.8,59.7,61,52
		c0.1-4.9,0.1-9.8,0-14.7c0-3.7-1.9-5.4-5.7-5.1c-1.2,0.1-1.7-0.2-1.6-1.5c0.1-3.1,0-6.2,0-9.4c0-4-2.2-6-6.1-5.4
		c-1,0.2-1.4-0.1-1.8-0.9c-0.8-1.9-2.3-2.8-4.4-2.8c-2,0-3.6,0.9-4.3,2.7c-0.5,1.3-1.2,1.2-2.3,1.1c-3.2-0.5-5.4,1.4-5.7,4.6
		c-0.1,0.7-0.1,1.5,0,2.2c0.1,1.1-0.1,1.5-1.4,1.2c-3.5-0.7-5.9,1.4-5.9,5.1C21.9,32.8,21.9,36.6,21.9,40.4z"/>
	<path class="st1" d="M21.9,40.4c0-3.8,0-7.6,0-11.4c0-3.7,2.4-5.8,5.9-5.1c1.3,0.3,1.5-0.1,1.4-1.2c0-0.7,0-1.5,0-2.2
		c0.2-3.2,2.5-5.1,5.7-4.6c1.1,0.2,1.7,0.2,2.3-1.1c0.7-1.8,2.3-2.7,4.3-2.7c2,0,3.6,0.9,4.4,2.8c0.4,0.9,0.8,1.1,1.8,0.9
		c3.8-0.6,6.1,1.4,6.1,5.4c0,3.1,0.1,6.2,0,9.4c0,1.3,0.4,1.6,1.6,1.5c3.8-0.3,5.7,1.4,5.7,5.1c0,4.9,0.1,9.8,0,14.7
		c-0.2,7.6-5.1,14.7-12.2,17.3c-14.3,5.2-26.8-5.2-26.8-18.2C21.9,47.6,21.9,44,21.9,40.4z M31.6,19.3c-0.1,0.2-0.1,0.4-0.2,0.5
		c-0.1,0.1-0.1,0.2-0.1,0.3c-0.4,0.7-0.3,1.3-0.1,2c0,0.6,0,1.2,0,1.8c-0.2,5.5-0.2,11,0,16.5c0,0.3,0,0.6,0,1
		c-0.1,0.1-0.1,0.2,0,0.3c-0.1,0.3-0.1,0.6-0.2,0.9c-0.1,0-0.2,0.1-0.1,0.2C29.5,43,29.5,42,29.5,41c0-3.9,0-7.8,0-11.7
		c0-2.3-1-3.6-2.8-3.6c-1.8,0-2.8,1.2-2.8,3.5c0,7.5-0.1,15,0,22.5c0.1,4.4,1.6,8.2,4.6,11.4c8.4,9,23.3,7,28.5-3.8
		c0.5-0.5,0.8-1.2,0.9-2l0,0c0.7-0.9,0.7-2,1-3l0-0.1c0-0.9,0.1-1.7,0.1-2.6c0.2-0.7,0.2-1.3,0-2c0-4.3,0.1-8.6,0.1-12.9
		c0-1.6-1-2.7-2.4-2.9c-1.9-0.3-3.3,1.1-3.3,3.1c0,3.7,0,7.4,0,11.1c-0.2,0.2-0.3,0.4-0.5,0.7c-1.2,0.1-2.5-0.1-3.7,0.5
		c-0.2,0-0.4,0.1-0.6,0.1c-0.2,0.1-0.4,0.2-0.6,0.2c-2.5,0.6-4.4,2.1-5.9,4.1c-0.4,0.6-0.8,1.3-1.5,0.8c-0.8-0.5-0.2-1.2,0.1-1.7
		c2.3-3.3,5.5-5.1,9.4-5.5c1.3-0.2,1.6-0.6,1.6-1.8c-0.1-8,0-16,0-24.1c0-0.5,0-0.9-0.1-1.4c-0.4-1.4-1.3-2.3-2.8-2.3
		c-1.5,0-2.5,0.9-2.7,2.4C46,21,46,21.8,46,22.6c0,5.4,0,10.9,0,16.3c0,0.9,0.3,2.4-1.1,2.2c-0.9-0.1-0.4-1.4-0.5-2.2
		c0.3-4.9,0.3-9.7,0-14.6c0-1.3,0-2.5,0-3.8c0.2-0.2,0.2-0.4,0-0.6c-0.1-1.2-0.2-2.4-0.3-3.7c-1.1-2.5-3.1-2.9-4.8-0.9l0,0
		c-0.6,0.4-0.7,1.1-0.7,1.8c0,7.7,0.1,15.4,0.1,23c-0.1,0.6-0.3,1.2-1.1,1c-0.8-0.2-0.6-0.9-0.7-1.4c0-6.3,0.1-12.6,0.1-18.9
		c0-0.7-0.1-1.5-0.8-1.9c-0.4-0.8-1.1-1.2-2-1C33,17.6,32.2,18.2,31.6,19.3C31.6,19.2,31.6,19.3,31.6,19.3z"/>
	<path class="st3" d="M31.3,41.4c0-0.3,0-0.6,0-1c0.2-5.5,0.2-11,0-16.5c0-0.6,0-1.2,0-1.8c0-0.7,0.1-1.3,0.1-2
		c-0.1-0.1,0-0.2,0.1-0.3c0.2-0.1,0.3-0.3,0.2-0.5c0,0,0-0.1,0-0.1c1.2,0.1,2.4,0.4,2.6-1.4c0.9-0.1,1.5,0.3,2,1
		c-1.1,0.1-2.1,0.6-2.2,1.8c-0.1,1.1,0.5,1.9,1.5,2.3c0.8,0.3,0.9,1,0.5,1.4c-1.6,1.9-0.7,4.2-1.1,6.2c-0.6,3.1,1.4,5.7,1.3,8.7
		c0,0.1,0.4,0.3,0.6,0.4c0.1,0.5-0.1,1.3,0.7,1.4c0.8,0.2,1-0.4,1.1-1c1-0.5,0.7-1.5,0.7-2.3c0-5.9,0-11.9,0-17.8
		c0-0.6-0.2-1.4,0.1-1.7c0.9-1.1,0.4-2-0.2-3c0,0,0,0,0,0c1.6,0.5,3.1,1.5,4.8,0.9c0.1,1.2,0.2,2.4,0.3,3.7c0,0.2,0,0.4,0,0.6
		c0,1.3,0,2.5,0,3.8c-0.2,4.9-0.2,9.7,0,14.6c0.1,0.8-0.4,2.1,0.5,2.2c1.4,0.1,1.1-1.3,1.1-2.2c0-5.4,0-10.9,0-16.3
		c0-0.8,0-1.6,0.1-2.4c0.2-1.5,1.2-2.3,2.7-2.4c1.6-0.1,2.4,0.9,2.8,2.3c0.1,0.4,0.1,0.9,0.1,1.4c0,8,0,16,0,24.1
		c0,1.3-0.4,1.7-1.6,1.8c-3.9,0.5-7.2,2.2-9.4,5.5c-0.3,0.5-1,1.2-0.1,1.7c0.8,0.5,1.1-0.2,1.5-0.8c1.5-2.1,3.3-3.6,5.9-4.1
		c0.2-0.1,0.4-0.2,0.6-0.2c0.2,0,0.4-0.1,0.6-0.1c1,0.1,2,0.1,2.9,0.3c0.7,0.1,0.8-0.2,0.8-0.8c0.2-0.2,0.3-0.4,0.5-0.7
		c0.5-0.6,0.3-1.3,0.3-1.9c0-2.6,0-5.3,0-7.9c0-0.6-0.1-1.4,0.8-1.6c1.9-0.3,3.2,0.8,3.2,2.7c0,2.9,0,5.8,0,8.7
		c0,0.9,0.1,1.6,1.2,1.5c0.2,0.7,0.2,1.3,0,2c-0.5,1.2-2.5,1.4-2.1,3.3c0.2,0.9,0.9,1.5,0.9,2.4c0,0,0,0,0,0c-1.5,0.1-0.7,1.3-0.9,2
		c-5.2,10.8-20.1,12.7-28.5,3.8c-3-3.2-4.5-7.1-4.6-11.4c-0.1-7.5,0-15,0-22.5c0-2.3,1.1-3.5,2.8-3.5c1.8,0,2.8,1.3,2.8,3.6
		c0,3.9,0,7.8,0,11.7c0,1-0.1,2,1.4,1.7c0.1,0.1,0.1,0.4,0.3,0.2c0,0-0.1-0.3-0.2-0.4c0.1-0.3,0.1-0.6,0.2-0.9c0,0,0.1-0.2,0.1-0.2
		L31.3,41.4z M56.9,43.8c-0.4-0.4-0.7-0.3-0.9-0.2c-0.5,0.2-1.4-0.6-1.4,0.6c0,0.6-0.3,1.4,0.3,1.6c0.8,0.3,0.9-0.7,1.3-1.1
		C56.4,44.5,56.6,44.1,56.9,43.8z M57.7,50.8c-0.1-0.2,0-0.6-0.4-0.5C57,50.4,57,50.7,57,51c0,0.2,0,0.6,0.4,0.5
		C57.7,51.4,57.7,51.1,57.7,50.8z M54.7,48.5c-0.1,0.2-0.3,0.3-0.3,0.4c0,0.1,0.2,0.3,0.3,0.3c0.2,0,0.5-0.1,0.4-0.4
		C55.1,48.7,54.9,48.6,54.7,48.5z"/>
	<path class="st4" d="M44.4,20.5c0-0.2,0-0.4,0-0.6C44.6,20.1,44.6,20.3,44.4,20.5z"/>
	<path class="st5" d="M31.1,42.6c0.1,0.2,0.2,0.4,0.2,0.4C31,43.2,31,42.9,31,42.8C30.9,42.6,31,42.6,31.1,42.6z"/>
	<path class="st5" d="M48.6,49.4c-0.2,0.1-0.4,0.2-0.6,0.2C48.1,49.6,48.4,49.5,48.6,49.4z"/>
	<path class="st5" d="M31.3,41.4l0.1,0.2c0,0-0.1,0.2-0.1,0.2C31.2,41.6,31.2,41.5,31.3,41.4z"/>
	<polygon class="st4" points="58.9,54.4 58.8,54.3 58.9,54.3 	"/>
	<g>
		<path class="st6" d="M36.2,18.9c-1.1,0.1-2.1,0.6-2.2,1.8c-0.1,1.1,0.5,1.9,1.5,2.3c0.8,0.3,0.9,1,0.5,1.4
			c-1.6,1.9-0.7,4.2-1.1,6.2c-0.6,3.1,1.4,5.7,1.3,8.7c0,0.1,0.4,0.3,0.6,0.4c0-6.3,0.1-12.6,0.1-18.9C37,20.1,36.9,19.4,36.2,18.9z
			"/>
		<path class="st6" d="M56.6,33.9c-1.9-0.3-3.3,1.1-3.3,3.1c0,3.7,0,7.4,0,11.1c0.5-0.6,0.3-1.3,0.3-1.9c0-2.6,0-5.3,0-7.9
			c0-0.6-0.1-1.4,0.8-1.6c1.9-0.3,3.2,0.8,3.2,2.7c0,2.9,0,5.8,0,8.7c0,0.9,0.1,1.6,1.2,1.5c0-4.3,0.1-8.6,0.1-12.9
			C59.1,35.2,58,34.1,56.6,33.9z"/>
		<path class="st6" d="M38.6,17.1c0,7.7,0.1,15.4,0.1,23c1-0.5,0.7-1.5,0.7-2.3c0-5.9,0-11.9,0-17.8c0-0.6-0.2-1.4,0.1-1.7
			c0.9-1.1,0.4-2-0.2-3C38.7,15.8,38.6,16.4,38.6,17.1z"/>
		<path class="st6" d="M39.3,15.3c1.6,0.5,3.1,1.5,4.8,0.9C43.1,13.7,41.1,13.4,39.3,15.3z"/>
		<path class="st6" d="M56.9,55c0.2,0.9,0.9,1.5,0.9,2.4c0.7-0.9,0.7-2,1-3l-0.1-0.1c0,0,0.1,0,0.1,0c0-0.9,0.1-1.7,0.1-2.6
			C58.5,52.9,56.4,53.1,56.9,55z"/>
		<path class="st6" d="M31.3,40.4c0.2-5.5,0.2-11,0-16.5C31.1,29.4,31.1,34.9,31.3,40.4z"/>
		<path class="st6" d="M44.3,38.9c0.3-4.9,0.3-9.7,0-14.6C44.1,29.2,44.2,34.1,44.3,38.9z"/>
		<path class="st6" d="M31.6,19.2c1.2,0.1,2.4,0.4,2.6-1.4C33,17.6,32.2,18.2,31.6,19.2z"/>
		<path class="st6" d="M49.2,49.3c1,0.1,2,0.1,2.9,0.3c0.7,0.1,0.8-0.2,0.8-0.8C51.7,48.9,50.4,48.7,49.2,49.3z"/>
		<path class="st6" d="M57,59.4c0.5-0.5,0.8-1.2,0.9-2C56.4,57.5,57.1,58.6,57,59.4z"/>
		<path class="st6" d="M31.4,20.1c-0.4,0.7-0.3,1.3-0.1,2C31.3,21.5,31.4,20.8,31.4,20.1z"/>
		<path class="st6" d="M31.5,19.8c0.2-0.1,0.3-0.3,0.2-0.5C31.6,19.5,31.5,19.6,31.5,19.8z"/>
		<path class="st6" d="M56,43.6c-0.5,0.2-1.4-0.6-1.4,0.6c0,0.6-0.3,1.4,0.3,1.6c0.8,0.3,0.9-0.7,1.3-1.1c0.3-0.2,0.5-0.6,0.8-0.9
			C56.5,43.4,56.2,43.5,56,43.6z"/>
		<path class="st6" d="M57.4,51.5c0.3-0.1,0.3-0.4,0.3-0.6c-0.1-0.2,0-0.6-0.4-0.5C57,50.4,57,50.7,57,51C57,51.2,57,51.5,57.4,51.5
			z"/>
		<path class="st6" d="M54.7,48.5c-0.1,0.2-0.3,0.3-0.3,0.4c0,0.1,0.2,0.3,0.3,0.3c0.2,0,0.5-0.1,0.4-0.4
			C55.1,48.7,54.9,48.6,54.7,48.5z"/>
	</g>
</g>
</svg>
