<?xml version="1.0" encoding="utf-8"?>
<!-- Generator: Adobe Illustrator 25.0.1, SVG Export Plug-In . SVG Version: 6.00 Build 0)  -->
<svg version="1.1" id="Calque_1" xmlns="http://www.w3.org/2000/svg" xmlns:xlink="http://www.w3.org/1999/xlink" x="0px" y="0px"
	 viewBox="0 0 82 82" style="enable-background:new 0 0 82 82;" xml:space="preserve">
<style type="text/css">
	.st0{fill:none;}
	.st1{fill:#5E2959;}
	.st2{fill:#EE5381;}
	.st3{fill:#F8F4F8;}
</style>
<rect id="backgroundrect" y="0" class="st0" width="82" height="82"/>
<g>
	<path class="st1" d="M41-0.1c22.3,0,39.3,17.4,40.8,36.8c2.3,30.1-22,45.5-40.7,45.3C18.4,81.9,0,63.7,0,41C0,18.3,18.4-0.1,41-0.1
		z M41.5,2.3C20.3,2.1,2.8,19.1,2.3,39.9C1.8,61.5,19.4,79.5,40.2,79.6C62,79.8,79.4,63,79.8,41.6C80.2,20.2,62.6,2.2,41.5,2.3z"/>
	<path class="st2" d="M41.5,2.3c21-0.1,38.7,17.9,38.3,39.3C79.4,63,62,79.8,40.2,79.6C19.4,79.5,1.8,61.5,2.3,39.9
		C2.8,19.1,20.3,2.1,41.5,2.3z M21.2,37.7C21.2,37.7,21.2,37.7,21.2,37.7c0,3.1,0,6.2,0,9.3c0.1,3.2,0.8,6.2,2.4,8.9
		c4.6,7.9,11.4,11.5,20.6,11c7.5-0.5,15.5-6.9,17.6-14.2c1.3-4.5,1.2-9.1,1-13.7c-0.1-2.7-1.3-5.3-4.1-5.9c-2.5-0.6-2.9-1.9-2.6-4
		c0-0.3,0-0.7,0-1c0-4.3-3.1-6.6-7.2-5.3c-0.9,0.3-1.4,0.2-2.1-0.5c-2.3-2.4-4.2-2.6-7-1c-0.7,0.4-1.2,0.5-2,0.1
		c-3.2-1.8-4.6-1.6-7.3,1.1c-0.5,0.4-0.8,1.1-1.7,0.6c-3.5-1.9-7.7,0.7-7.6,5.3C21.2,31.5,21.2,34.6,21.2,37.7z"/>
	<path class="st1" d="M21.2,37.7c0-3.1,0.1-6.2,0-9.3c-0.1-4.6,4-7.2,7.6-5.3c0.9,0.5,1.2-0.1,1.7-0.6c2.7-2.7,4.2-2.9,7.3-1.1
		c0.8,0.5,1.3,0.3,2-0.1c2.8-1.6,4.7-1.4,7,1c0.7,0.7,1.2,0.8,2.1,0.5c4.1-1.3,7.1,1.1,7.2,5.3c0,0.3,0,0.7,0,1
		c-0.3,2.1,0.1,3.4,2.6,4c2.8,0.6,4,3.2,4.1,5.9c0.2,4.6,0.3,9.2-1,13.7C59.6,60,51.7,66.5,44.1,66.9c-9.1,0.6-16-3.1-20.6-11
		c-1.6-2.7-2.3-5.8-2.4-8.9C21.1,44,21.2,40.8,21.2,37.7C21.2,37.7,21.2,37.7,21.2,37.7z M23.2,41.3c0,2.9-0.1,5.5,0.3,8.2
		c1.1,7.2,7,13.5,14.2,15.1c7.7,1.7,15.5-1.5,19.7-7.7c4-5.8,3.3-12.4,3-18.8c-0.1-1.7-1.5-2.9-3.3-3.1c-2.8-0.4-5.7-0.3-8.5-0.1
		c-1.8,0.1-2.6,1.5-2.5,3.1c0.1,1.6,1.2,2.6,2.8,2.7c1,0.1,2,0,3,0c1.2,0,2.4-0.2,2.2,1.6c-0.1,1.3,0.7,3-1.9,3.1
		c-3.8,0.1-7.1,1.5-9.6,4.5c-0.6,0.6-0.8,2.5-2.1,1.5c-1.1-0.9,0.3-1.9,0.8-2.7c0.2-0.4,0.6-0.7,1-1c2.4-2.2,5.3-3.5,8.5-3.9
		c0.5-0.1,1.6,0.3,1.5-0.8c-0.1-0.9-1-0.5-1.5-0.5c-1.5,0-3.1,0.2-4.5-0.8c-0.5-0.4-1,0.1-1.5,0.3c-1.9,0.8-3.7,0.7-5.3-0.7
		c-0.6-0.5-0.9-0.7-1.7-0.1c-2.6,1.8-4,1.8-6.6,0c-0.5-0.3-0.8-0.6-1.3-0.1C28,42.6,25.8,42.6,23.2,41.3z M31.4,31.1
		c0,2.1-0.1,4.2,0,6.3c0.1,1.8,1.4,3.1,3,3.2c1.7,0.1,3.3-1.1,3.3-2.9c0.1-4.1,0.1-8.2,0-12.3c-0.1-1.7-1.7-3-3.3-2.9
		c-1.9,0.2-3.2,1.1-3.1,3.1C31.5,27.4,31.4,29.3,31.4,31.1z M45.9,30.1c0-1.8,0-3.1,0-4.4c-0.1-1.7-1.6-3.3-3.2-3.3
		c-1.6,0-3.1,1.3-3.1,3.1c-0.1,4-0.1,8,0,12c0.1,1.9,1.8,3.3,3.6,3c1-0.2,1.9-0.4,1.4-1.8c-0.4-0.9-0.3-2,0.3-2.7
		C46.4,34,45.8,31.8,45.9,30.1z M23.2,32.5C23.2,32.5,23.2,32.5,23.2,32.5c0,1.6-0.1,3.2,0,4.9c0.1,1.9,1.5,3.2,3.3,3.2
		c1.7,0,3.1-1.4,3.2-3.3c0.1-3.1,0.1-6.2,0-9.3c0-2-1.3-3.2-3.1-3.3c-2.2-0.2-3.1,1.2-3.3,3.2C23.1,29.4,23.2,30.9,23.2,32.5z
		 M50.8,32.9c3.3,0,3.3,0,3.3-3.2c0-0.7,0.1-1.5,0-2.2c-0.2-1.7-1.2-2.7-2.9-2.8c-1.7-0.1-2.9,0.7-3.3,2.3c-0.2,0.9-0.2,1.9-0.2,2.8
		C47.6,32.9,47.6,32.9,50.8,32.9z"/>
	<path class="st3" d="M23.2,41.3c2.6,1.4,4.7,1.4,6.7-0.4c0.6-0.5,0.8-0.3,1.3,0.1c2.6,1.8,4,1.9,6.6,0c0.8-0.5,1.1-0.3,1.7,0.1
		c1.6,1.3,3.4,1.5,5.3,0.7c0.5-0.2,1-0.6,1.5-0.3c1.4,1,3,0.7,4.5,0.8c0.5,0,1.4-0.4,1.5,0.5c0.1,1.1-1,0.7-1.5,0.8
		c-3.2,0.5-6.1,1.7-8.5,3.9c-0.3,0.3-0.7,0.6-1,1c-0.5,0.9-2,1.8-0.8,2.7c1.2,1,1.5-0.9,2.1-1.5c2.6-3,5.9-4.4,9.6-4.5
		c2.6-0.1,1.8-1.7,1.9-3.1c0.2-1.9-1.1-1.7-2.2-1.6c-1,0-2,0-3,0c-1.7-0.1-2.7-1.1-2.8-2.7c-0.1-1.6,0.8-3,2.5-3.1
		c2.8-0.2,5.7-0.3,8.5,0.1c1.8,0.2,3.2,1.4,3.3,3.1c0.3,6.5,1,13-3,18.8c-4.3,6.2-12.1,9.4-19.7,7.7c-7.1-1.6-13-7.9-14.2-15.1
		C23.1,46.8,23.2,44.2,23.2,41.3z"/>
	<path class="st3" d="M31.4,31.1c0-1.8,0.1-3.7,0-5.5c-0.2-2,1.1-3,3.1-3.1c1.6-0.2,3.3,1.1,3.3,2.9c0.1,4.1,0.1,8.2,0,12.3
		c0,1.8-1.6,3-3.3,2.9c-1.6-0.1-3-1.4-3-3.2C31.3,35.3,31.4,33.2,31.4,31.1z"/>
	<path class="st3" d="M45.9,30.1c-0.1,1.6,0.4,3.9-1.2,5.8c-0.6,0.7-0.6,1.8-0.3,2.7c0.5,1.4-0.4,1.7-1.4,1.8
		c-1.8,0.3-3.5-1.1-3.6-3c-0.1-4-0.1-8,0-12c0-1.8,1.6-3.1,3.1-3.1c1.6,0,3.2,1.6,3.2,3.3C46,27,45.9,28.3,45.9,30.1z"/>
	<path class="st3" d="M23.2,32.5c0-1.6-0.1-3.1,0-4.7c0.2-2,1.1-3.4,3.3-3.2c1.8,0.1,3.1,1.3,3.1,3.3c0.1,3.1,0.1,6.2,0,9.3
		c0,1.9-1.4,3.3-3.2,3.3c-1.7,0-3.2-1.3-3.3-3.2C23.2,35.7,23.2,34.1,23.2,32.5C23.2,32.5,23.2,32.5,23.2,32.5z"/>
	<path class="st3" d="M50.8,32.9c-3.1,0-3.1,0-3.1-3.2c0-0.9,0-1.9,0.2-2.8c0.4-1.7,1.6-2.5,3.3-2.3c1.7,0.1,2.7,1.2,2.9,2.8
		c0.1,0.7,0,1.5,0,2.2C54.1,33,54.1,33,50.8,32.9z"/>
</g>
</svg>
